HIERARCHY
ROOT Hips
{
	OFFSET 0.00000 0.00000 0.00000
	CHANNELS 6 Xposition Yposition Zposition Zrotation Yrotation Xrotation 
	JOINT LHipJoint
	{
		OFFSET 0 0 0
		CHANNELS 3 Zrotation Yrotation Xrotation
		JOINT LeftUpLeg
		{
			OFFSET 1.38615 -1.80049 0.80104
			CHANNELS 3 Zrotation Yrotation Xrotation
			JOINT LeftLeg
			{
				OFFSET 2.50172 -6.87341 0.00000
				CHANNELS 3 Zrotation Yrotation Xrotation
				JOINT LeftFoot
				{
					OFFSET 2.67523 -7.35014 0.00000
					CHANNELS 3 Zrotation Yrotation Xrotation
					JOINT LeftToeBase
					{
						OFFSET 0.17446 -0.47932 2.13155
						CHANNELS 3 Zrotation Yrotation Xrotation
						End Site
						{
							OFFSET 0.00000 -0.00000 1.10023
						}
					}
				}
			}
		}
	}
	JOINT RHipJoint
	{
		OFFSET 0 0 0
		CHANNELS 3 Zrotation Yrotation Xrotation
		JOINT RightUpLeg
		{
			OFFSET -1.18047 -1.80049 0.80104
			CHANNELS 3 Zrotation Yrotation Xrotation
			JOINT RightLeg
			{
				OFFSET -2.59789 -7.13765 0.00000
				CHANNELS 3 Zrotation Yrotation Xrotation
				JOINT RightFoot
				{
					OFFSET -2.62125 -7.20183 0.00000
					CHANNELS 3 Zrotation Yrotation Xrotation
					JOINT RightToeBase
					{
						OFFSET -0.31287 -0.85960 2.07814
						CHANNELS 3 Zrotation Yrotation Xrotation
						End Site
						{
							OFFSET -0.00000 -0.00000 1.11766
						}
					}
				}
			}
		}
	}
	JOINT LowerBack
	{
		OFFSET 0 0 0
		CHANNELS 3 Zrotation Yrotation Xrotation
		JOINT Spine
		{
			OFFSET -0.01587 2.16157 -0.12309
			CHANNELS 3 Zrotation Yrotation Xrotation
			JOINT Spine1
			{
				OFFSET 0.04727 2.16674 -0.03569
				CHANNELS 3 Zrotation Yrotation Xrotation
				JOINT Neck
				{
					OFFSET 0 0 0
					CHANNELS 3 Zrotation Yrotation Xrotation
					JOINT Neck1
					{
						OFFSET -0.08586 1.60335 0.32783
						CHANNELS 3 Zrotation Yrotation Xrotation
						JOINT Head
						{
							OFFSET 0.07583 1.65857 -0.31618
							CHANNELS 3 Zrotation Yrotation Xrotation
							End Site
							{
								OFFSET 0.03386 1.69434 -0.14584
							}
						}
					}
				}
				JOINT LeftShoulder
				{
					OFFSET 0 0 0
					CHANNELS 3 Zrotation Yrotation Xrotation
					JOINT LeftArm
					{
						OFFSET 3.17393 1.01901 -0.52897
						CHANNELS 3 Zrotation Yrotation Xrotation
						JOINT LeftForeArm
						{
							OFFSET 5.25287 -0.00000 -0.00000
							CHANNELS 3 Zrotation Yrotation Xrotation
							JOINT LeftHand
							{
								OFFSET 3.51014 -0.00000 0.00000
								CHANNELS 3 Zrotation Yrotation Xrotation
								JOINT LeftFingerBase
								{
									OFFSET 0 0 0
									CHANNELS 3 Zrotation Yrotation Xrotation
									JOINT LeftHandIndex1
									{
										OFFSET 0.70618 -0.00000 -0.00000
										CHANNELS 3 Zrotation Yrotation Xrotation
										End Site
										{
											OFFSET 0.56934 -0.00000 -0.00000
										}
									}
								}
								JOINT LThumb
								{
									OFFSET 0 0 0
									CHANNELS 3 Zrotation Yrotation Xrotation
									End Site
									{
										OFFSET 0.57803 -0.00000 0.57803
									}
								}
							}
						}
					}
				}
				JOINT RightShoulder
				{
					OFFSET 0 0 0
					CHANNELS 3 Zrotation Yrotation Xrotation
					JOINT RightArm
					{
						OFFSET -2.99471 1.26495 -0.61125
						CHANNELS 3 Zrotation Yrotation Xrotation
						JOINT RightForeArm
						{
							OFFSET -5.28721 -0.00000 -0.00000
							CHANNELS 3 Zrotation Yrotation Xrotation
							JOINT RightHand
							{
								OFFSET -3.50544 -0.00000 0.00000
								CHANNELS 3 Zrotation Yrotation Xrotation
								JOINT RightFingerBase
								{
									OFFSET 0 0 0
									CHANNELS 3 Zrotation Yrotation Xrotation
									JOINT RightHandIndex1
									{
										OFFSET -0.88500 -0.00000 -0.00000
										CHANNELS 3 Zrotation Yrotation Xrotation
										End Site
										{
											OFFSET -0.71351 -0.00000 -0.00000
										}
									}
								}
								JOINT RThumb
								{
									OFFSET 0 0 0
									CHANNELS 3 Zrotation Yrotation Xrotation
									End Site
									{
										OFFSET -0.72440 -0.00000 0.72440
									}
								}
							}
						}
					}
				}
			}
		}
	}
}
MOTION
Frames: 9
Frame Time: 0.222222
0.00 0.00 0.00 0 0 0 0 0 0 -21 0 0 0 0 0 0 0 0 0 0 0 0 0 0 21 0 0 0 0 0 0 0 0 0 0 0 0 0 0 0 0 0 0 0 0 0 0 -16 0 0 21 0 0 11 0 0 0 -8 0 0 0 0 0 0 0 0 0 0 0 0 0 0 0 0 0 0 0 0 8 0 0 0 0 0 0 0 0 0 0 0 0 0 0 0 0 0
0.00 0.00 0.00 3.4609 -41.4160 5.6626 0.0000 0.0000 0.0000 -16.3990 2.5130 -22.4210 3.7405 11.8069 35.0522 0.5592 -9.9673 -14.0784 0.6178 -5.0303 -13.9949 0.0000 0.0000 0.0000 14.3380 0.8185 -20.4710 -4.2119 -12.4372 37.2965 -1.8024 -6.5980 -28.4515 -0.6324 5.0882 -14.1603 -2.1393 1.7300 3.8328 1.4588 2.2309 1.5159 2.5969 1.1037 -0.7308 -13.2810 -7.1837 -18.1195 6.4117 -7.7958 20.7695 3.3124 -3.9322 10.4496 0.0000 -0.0000 0.0000 -87.3549 2.6740 8.2723 19.3984 -29.9107 -5.2280 -0.0000 -0.0000 5.9548 7.8651 35.2727 4.5609 -7.1250 0.0000 -0.0000 -31.0139 62.8312 -14.1322 0.0000 -0.0000 0.0000 83.1467 1.6413 2.1391 -19.8225 30.4279 -5.4412 0.0000 -0.0000 -2.6796 -12.2291 10.3666 -2.2335 7.1250 -0.0000 -0.0000 10.4768 -19.4674 6.4949
0.00 0.00 0.00 4.6839 -49.3813 4.9989 0.0000 0.0000 0.0000 -9.6634 2.2539 -32.2136 5.6091 14.0386 43.3921 1.0996 -7.3930 -18.7331 2.7377 -10.2579 -29.8159 0.0000 0.0000 0.0000 -3.7015 5.9416 -33.5580 -7.7280 -15.9155 51.5770 -0.4325 -11.5739 -21.4679 -0.0920 -1.9565 5.3855 -3.6780 3.0309 17.4492 3.0928 3.3833 4.6661 4.6586 1.6351 -5.1588 -14.8919 -8.7126 -19.5165 8.6704 -9.0421 7.9398 4.1037 -4.1913 6.6260 0.0000 0.0000 0.0000 -85.0904 0.6306 24.7659 33.2914 -43.5528 -13.6224 -0.0000 -0.0000 3.3459 9.8353 37.2459 5.9899 -7.1250 0.0000 -0.0000 -31.3071 65.0094 -15.8616 0.0000 0.0000 0.0000 69.1223 5.2462 0.9443 -24.2353 35.4121 -7.8425 0.0000 -0.0000 -5.6196 -17.6493 11.3718 -3.5897 7.1250 -0.0000 -0.0000 6.6490 -18.1090 4.2820
0.00 0.00 0.00 4.2056 -50.7194 4.6835 0.0000 0.0000 0.0000 -11.4047 1.9526 -35.4821 6.8383 15.1942 48.2602 1.1227 -8.2838 -18.9730 1.5420 -7.8387 -22.2253 0.0000 0.0000 0.0000 2.8261 2.3116 -43.0265 -12.4147 -18.5605 67.2973 -1.8235 3.8382 -24.6043 -1.0778 6.5991 -18.5328 -4.2689 4.4010 20.9634 2.1749 4.7760 6.1129 3.5562 2.2514 -5.5600 -14.0688 -10.0555 -18.1123 10.3145 -11.1894 2.0901 4.3201 -5.1347 4.8542 0.0000 -0.0000 0.0000 -82.6226 1.5075 36.1004 41.8072 -49.1049 -19.7947 -0.0000 -0.0000 6.5522 14.0960 34.6364 8.1225 -7.1250 0.0000 -0.0000 -23.7149 63.9179 -11.1818 0.0000 -0.0000 0.0000 73.5775 3.5354 11.0799 -30.2437 41.1013 -11.5695 0.0000 -0.0000 -6.7246 -19.8343 15.3259 -5.4459 7.1250 -0.0000 -0.0000 5.2412 -13.7860 3.8578
0.00 0.00 0.00 4.1536 -41.7351 5.9918 0.0000 0.0000 0.0000 -12.4351 1.7976 -44.6488 7.6186 15.8315 51.1771 -0.8065 -19.9971 -5.9647 1.0305 -6.4569 -18.1161 0.0000 0.0000 0.0000 16.1492 1.3348 -40.0625 -10.9733 -17.9220 62.6947 -1.8470 7.0066 -24.4077 -0.6567 5.1833 -14.4320 -4.0057 2.2655 23.1356 1.8512 1.9262 7.3670 3.7874 0.8160 -4.9928 -18.0777 -12.0715 -12.1135 15.2157 -13.9131 -6.8587 6.5300 -6.5394 2.2382 0.0000 0.0000 0.0000 -86.7155 1.7321 40.3014 47.7988 -52.0682 -24.4270 -0.0000 -0.0000 10.0603 14.1279 37.9370 8.7964 -7.1250 0.0000 -0.0000 -27.5654 66.8247 -14.9625 0.0000 0.0000 0.0000 80.8235 4.8873 25.9618 -32.7868 43.1655 -13.2760 0.0000 -0.0000 -1.9488 -16.4382 19.5606 -5.6414 7.1250 -0.0000 -0.0000 7.6677 -9.7968 6.3095
0.00 0.00 0.00 -6.0329 -35.8175 9.7251 0.0000 0.0000 0.0000 -0.7577 -0.8860 -42.1015 11.3255 18.0907 63.8343 1.9645 -12.6768 -25.3887 1.3338 -7.3130 -20.6459 0.0000 0.0000 0.0000 6.4616 5.2572 -44.3464 -13.2690 -18.8771 69.9589 -1.5289 -0.1365 -23.4460 -0.4814 4.4495 -12.3449 -9.1507 3.0332 27.7206 -1.9291 0.9905 9.8797 2.8158 0.2118 -4.3078 -17.9449 -13.5640 -6.1909 27.0861 -15.6813 -19.3501 10.8503 -8.2654 -0.5610 -0.0000 0.0000 0.0000 -80.8482 -0.0659 37.1514 62.3637 -56.9076 -36.3148 -0.0000 -0.0000 7.9100 14.1899 31.2358 7.4700 -7.1250 0.0000 -0.0000 -20.4910 60.8329 -8.1020 -0.0000 0.0000 0.0000 86.7457 3.7760 12.2913 -23.5501 34.6849 -7.4490 0.0000 -0.0000 -7.0986 -21.2829 7.9396 -3.0799 7.1250 -0.0000 -0.0000 4.0306 -21.4757 2.2807
0.00 0.00 0.00 1.3533 -43.7830 7.1955 0.0000 0.0000 0.0000 3.5594 -2.0303 -46.5826 12.8101 18.7125 68.5345 0.4293 -11.3694 -13.1987 0.3692 -3.9031 -10.8043 0.0000 0.0000 0.0000 8.5742 2.4354 -44.1290 -12.3051 -18.5166 66.9525 -2.7483 4.6936 -30.3254 -1.8209 8.4827 -24.1901 -1.2071 2.4769 33.3261 0.4830 2.3415 8.3356 0.3336 0.9313 -7.9020 -13.7154 -13.1180 -7.4109 22.0050 -15.0131 -23.7065 8.9224 -8.0487 -2.8016 0.0000 -0.0000 0.0000 -86.2620 -3.5843 35.9429 51.1655 -53.4549 -27.1077 -0.0000 -0.0000 16.0738 22.1225 33.9074 12.7772 -7.1250 0.0000 -0.0000 -13.8113 65.4453 -6.8823 0.0000 -0.0000 0.0000 83.9757 9.3536 14.8838 -28.3025 39.3932 -10.3151 0.0000 -0.0000 -7.5939 -14.5755 11.4969 -2.9668 7.1250 -0.0000 -0.0000 8.8008 -18.1916 5.6808
0.00 0.00 0.00 1.4555 -48.1547 11.5151 0.0000 0.0000 0.0000 -5.2005 1.8087 -46.2012 15.4740 19.5016 76.6605 -1.4375 -21.8829 0.4299 0.6005 -4.9607 -13.7964 0.0000 0.0000 0.0000 8.6479 -0.5305 -55.3203 -12.3696 -18.5426 67.1556 -0.5507 19.3209 -17.9175 -0.8440 5.8597 -16.3780 -3.2735 3.3182 32.0750 2.4140 2.9838 7.6836 3.2555 1.2499 -8.3548 -13.8710 -11.5925 -9.1630 19.7206 -13.0160 -24.1439 8.3705 -6.8757 -3.2543 -0.0000 -0.0000 0.0000 -87.3129 -3.7356 38.8757 50.8208 -53.3212 -26.8310 -0.0000 -0.0000 18.5484 15.7084 34.8754 9.1358 -7.1250 0.0000 -0.0000 -22.1812 64.5703 -10.7582 -0.0000 -0.0000 0.0000 80.1389 12.1689 13.4723 -33.0854 43.3955 -13.4807 0.0000 -0.0000 -9.7830 -17.9519 13.0455 -4.1828 7.1250 -0.0000 -0.0000 6.4573 -16.3477 4.4071
0.00 0.00 0.00 4.5613 -55.3406 6.5523 0.0000 0.0000 0.0000 1.1357 1.7038 -38.1073 9.9264 17.3683 59.2422 1.6313 -3.9275 -23.2030 0.4094 -4.1073 -11.3787 0.0000 0.0000 0.0000 -7.7146 5.9603 -43.7713 -12.1329 -18.4463 66.4094 -2.6073 7.1278 -29.1987 -3.0812 10.8254 -31.6932 -2.2035 5.3981 36.3143 2.7300 5.6835 8.0613 1.8599 2.3962 -9.5377 -13.4273 -3.6627 -21.8128 10.2874 -1.9193 -16.3125 5.3783 -0.5000 -1.3313 -0.0000 0.0000 0.0000 -86.5421 -0.8111 16.6623 52.0553 -53.7916 -27.8242 -0.0000 0.0000 -8.0675 19.7237 35.7009 11.8167 -7.1250 0.0000 -0.0000 -18.4414 66.4644 -9.6836 -0.0000 0.0000 0.0000 80.9565 8.8341 4.2215 -25.9878 37.1967 -8.8803 0.0000 -0.0000 -6.4945 -19.6134 9.1919 -3.2580 7.1250 -0.0000 -0.0000 5.2447 -20.2520 3.1179
